<svg width="368" height="337" viewBox="0 0 368 337" fill="none" xmlns="http://www.w3.org/2000/svg">
<path d="M34.469 187.163L129.625 261.633C148.656 276.529 158.172 283.977 169.148 286.767C178.805 289.222 189.195 289.222 198.851 286.767C209.828 283.977 219.344 276.529 238.375 261.633L333.531 187.163L333.671 187.069L333.742 187.019L333.859 186.927C352.656 172.188 362.101 164.774 365.648 156.231C367.218 152.454 367.999 148.531 367.999 144.608V192.608C367.999 196.531 367.218 200.454 365.648 204.231C362.085 212.81 352.578 220.252 333.601 235.116L333.531 235.163L238.375 309.633C219.344 324.529 209.828 331.976 198.851 334.767C189.195 337.222 178.805 337.222 169.148 334.767C158.172 331.976 148.656 324.529 129.625 309.633L34.469 235.163L34.3987 235.116C15.4222 220.252 5.91442 212.81 2.35192 204.231C0.781616 200.454 0.000367613 196.531 0.000367613 192.607V144.608C0.000367613 148.531 0.781616 152.454 2.35192 156.231C5.89879 164.774 15.3441 172.188 34.1409 186.927L34.2581 187.019L34.3284 187.069L34.469 187.163Z" fill="#DBDBDB"/>
<path d="M34.469 187.163C15.4359 172.267 5.91752 164.819 2.35192 156.231C-0.784465 148.677 -0.78373 140.54 2.35266 132.985C5.91826 124.397 15.4348 116.949 34.4679 102.054L129.625 27.5833C148.658 12.6878 158.174 5.24003 169.148 2.44957C178.801 -0.00499868 189.199 -0.00499868 198.852 2.44957C209.825 5.24003 219.342 12.6878 238.375 27.5833L333.532 102.054C352.565 116.949 362.082 124.397 365.647 132.985C368.784 140.54 368.784 148.677 365.648 156.231C362.082 164.819 352.564 172.267 333.531 187.163L238.375 261.633C219.344 276.529 209.828 283.977 198.851 286.767C189.195 289.222 178.805 289.222 169.148 286.767C158.172 283.977 148.656 276.529 129.625 261.633L34.469 187.163Z" fill="white"/>
<path d="M143.218 94.9613C133.702 87.5136 128.944 83.7897 127.161 79.4956C125.593 75.7184 125.593 71.6497 127.161 67.8725C128.944 63.5784 133.702 59.8545 143.218 52.4067L156.812 41.7681C166.329 34.3204 171.087 30.5965 176.574 29.2013C181.4 27.974 186.599 27.974 191.426 29.2013C196.913 30.5965 201.671 34.3204 211.188 41.7681L224.781 52.4067C234.298 59.8545 239.056 63.5784 240.839 67.8725C242.407 71.6497 242.407 75.7184 240.839 79.4956C239.056 83.7897 234.298 87.5136 224.781 94.9613L211.188 105.6C201.671 113.048 196.913 116.772 191.426 118.167C186.599 119.394 181.4 119.394 176.574 118.167C171.087 116.772 166.329 113.048 156.812 105.6L143.218 94.9613Z" fill="#FF8686"/>
<path d="M233.844 165.886C224.327 158.438 219.569 154.714 217.786 150.42C216.218 146.643 216.218 142.574 217.786 138.797C219.569 134.503 224.327 130.779 233.844 123.331L247.438 112.692C256.954 105.245 261.713 101.521 267.199 100.126C272.026 98.8982 277.225 98.8982 282.051 100.126C287.538 101.521 292.296 105.245 301.813 112.692L315.407 123.331C324.923 130.779 329.682 134.503 331.464 138.797C333.033 142.574 333.033 146.643 331.464 150.42C329.682 154.714 324.923 158.438 315.407 165.886L301.813 176.524C292.296 183.972 287.538 187.696 282.051 189.091C277.225 190.318 272.026 190.318 267.199 189.091C261.713 187.696 256.954 183.972 247.438 176.524L233.844 165.886Z" fill="#5AFF88"/>
<path d="M52.593 165.886C43.0765 158.438 38.3182 154.714 36.5354 150.42C34.9672 146.643 34.9672 142.574 36.5354 138.797C38.3182 134.503 43.0765 130.779 52.593 123.331L66.1868 112.692C75.7034 105.245 80.4617 101.521 85.9486 100.126C90.775 98.8982 95.974 98.8982 100.8 100.126C106.287 101.521 111.046 105.245 120.562 112.692L224.781 194.255C234.298 201.703 239.056 205.427 240.839 209.721C242.407 213.498 242.407 217.567 240.839 221.344C239.056 225.638 234.298 229.362 224.781 236.81L211.188 247.448C201.671 254.896 196.913 258.62 191.426 260.015C186.599 261.243 181.4 261.243 176.574 260.015C171.087 258.62 166.329 254.896 156.812 247.448L52.593 165.886Z" fill="#768CFF"/>
</svg>
